<svg width="96" height="96" viewBox="0 0 96 96" fill="none" xmlns="http://www.w3.org/2000/svg">
<rect width="96" height="96" rx="48" fill="black"/>
<path d="M23.6 61.624C22.544 61.624 21.456 61.48 20.336 61.192C19.248 60.936 18.32 60.552 17.552 60.04C16.816 59.496 16.448 58.824 16.448 58.024C16.448 57.416 16.464 56.536 16.496 55.384C16.56 54.232 16.624 52.92 16.688 51.448C16.784 49.944 16.88 48.424 16.976 46.888C17.072 45.32 17.152 43.848 17.216 42.472C17.312 41.064 17.376 39.88 17.408 38.92C17.472 37.928 17.504 37.256 17.504 36.904C17.504 36.552 17.584 36.296 17.744 36.136C17.936 35.944 18.288 35.848 18.8 35.848C19.856 35.848 20.944 35.992 22.064 36.28C23.184 36.536 24.128 36.936 24.896 37.48C25.664 37.992 26.048 38.648 26.048 39.448C26.048 39.608 26.032 39.912 26 40.36C25.968 40.808 25.92 41.336 25.856 41.944C25.792 42.552 25.728 43.208 25.664 43.912C25.632 44.616 25.584 45.32 25.52 46.024C25.456 46.696 25.392 47.336 25.328 47.944C25.296 48.52 25.264 49 25.232 49.384C25.424 48.552 25.84 47.576 26.48 46.456C27.152 45.304 27.936 44.12 28.832 42.904C29.76 41.656 30.72 40.504 31.712 39.448C32.704 38.36 33.616 37.496 34.448 36.856C35.312 36.184 36.016 35.848 36.56 35.848C36.752 35.848 37.12 35.928 37.664 36.088C38.208 36.248 38.784 36.488 39.392 36.808C40.032 37.096 40.576 37.448 41.024 37.864C41.504 38.248 41.792 38.696 41.888 39.208C41.952 39.496 41.984 39.816 41.984 40.168C42.016 40.52 42.032 40.888 42.032 41.272C42.032 41.432 42.016 41.768 41.984 42.28C41.952 42.76 41.904 43.32 41.84 43.96C41.776 44.6 41.712 45.272 41.648 45.976C41.584 46.648 41.52 47.288 41.456 47.896C41.424 48.472 41.376 48.952 41.312 49.336C41.536 48.504 41.984 47.512 42.656 46.36C43.328 45.208 44.112 44.024 45.008 42.808C45.936 41.592 46.88 40.456 47.84 39.4C48.8 38.344 49.712 37.496 50.576 36.856C51.44 36.184 52.128 35.848 52.64 35.848C52.864 35.848 53.232 35.928 53.744 36.088C54.288 36.248 54.864 36.488 55.472 36.808C56.08 37.096 56.608 37.448 57.056 37.864C57.504 38.248 57.776 38.696 57.872 39.208C57.936 39.496 57.968 39.816 57.968 40.168C58 40.52 58.016 40.888 58.016 41.272C58.016 41.592 57.984 42.248 57.92 43.24C57.856 44.232 57.776 45.32 57.68 46.504C57.616 47.656 57.552 48.728 57.488 49.72C57.424 50.712 57.392 51.4 57.392 51.784C57.392 52.968 57.424 53.704 57.488 53.992C57.584 54.28 57.744 54.424 57.968 54.424C58.096 54.424 58.272 54.328 58.496 54.136C58.752 53.912 59.008 53.656 59.264 53.368C59.552 53.048 59.824 52.744 60.08 52.456C60.336 52.168 60.528 51.944 60.656 51.784C60.848 51.592 60.96 51.48 60.992 51.448C61.024 51.384 61.088 51.352 61.184 51.352C61.376 51.352 61.6 51.544 61.856 51.928C62.112 52.312 62.24 52.728 62.24 53.176C62.24 53.368 62.192 53.576 62.096 53.8C62.032 53.992 61.936 54.184 61.808 54.376C61.552 54.792 61.104 55.4 60.464 56.2C59.824 57 59.104 57.816 58.304 58.648C57.536 59.48 56.784 60.184 56.048 60.76C55.312 61.336 54.672 61.624 54.128 61.624C53.936 61.624 53.568 61.544 53.024 61.384C52.48 61.224 51.904 61 51.296 60.712C50.688 60.392 50.16 60.024 49.712 59.608C49.264 59.192 48.992 58.744 48.896 58.264C48.864 57.944 48.832 57.624 48.8 57.304C48.768 56.952 48.752 56.584 48.752 56.2C48.752 55.976 48.768 55.512 48.8 54.808C48.864 54.104 48.912 53.288 48.944 52.36C49.008 51.432 49.072 50.52 49.136 49.624C49.2 48.696 49.248 47.88 49.28 47.176C49.344 46.472 49.376 45.976 49.376 45.688C49.376 44.504 49.328 43.768 49.232 43.48C49.168 43.192 49.024 43.048 48.8 43.048C48.608 43.048 48.24 43.32 47.696 43.864C47.184 44.408 46.608 45.128 45.968 46.024C45.328 46.92 44.688 47.928 44.048 49.048C43.44 50.168 42.912 51.304 42.464 52.456C41.888 53.928 41.504 55.288 41.312 56.536C41.12 57.784 41.024 59.128 41.024 60.568C41.024 60.92 40.928 61.176 40.736 61.336C40.576 61.528 40.24 61.624 39.728 61.624C38.672 61.624 37.584 61.48 36.464 61.192C35.376 60.936 34.448 60.552 33.68 60.04C32.944 59.496 32.576 58.824 32.576 58.024C32.576 57.8 32.576 57.56 32.576 57.304C32.608 57.016 32.624 56.728 32.624 56.44C32.656 56.12 32.672 55.848 32.672 55.624C32.704 55.336 32.736 54.84 32.768 54.136C32.832 53.432 32.88 52.648 32.912 51.784C32.976 50.888 33.024 50.024 33.056 49.192C33.12 48.36 33.168 47.624 33.2 46.984C33.232 46.344 33.248 45.912 33.248 45.688C33.248 44.504 33.2 43.768 33.104 43.48C33.04 43.192 32.896 43.048 32.672 43.048C32.48 43.048 32.128 43.32 31.616 43.864C31.104 44.408 30.528 45.128 29.888 46.024C29.248 46.92 28.608 47.928 27.968 49.048C27.328 50.168 26.784 51.304 26.336 52.456C25.792 53.928 25.408 55.288 25.184 56.536C24.992 57.784 24.896 59.128 24.896 60.568C24.896 60.92 24.8 61.176 24.608 61.336C24.448 61.528 24.112 61.624 23.6 61.624ZM58.3006 58.456C58.1726 58.552 58.0446 58.472 57.9166 58.216C57.7566 57.96 57.6286 57.64 57.5326 57.256C57.4366 56.84 57.3886 56.456 57.3886 56.104C57.3886 55.72 57.4526 55.464 57.5806 55.336C59.0526 53.768 60.3006 52.232 61.3246 50.728C62.3486 49.224 63.1966 47.768 63.8686 46.36C64.5726 44.92 65.2126 43.56 65.7886 42.28C65.9806 41.896 66.1086 41.8 66.1726 41.992C66.2686 42.184 66.3166 42.488 66.3166 42.904C66.3486 43.32 66.3486 43.672 66.3166 43.96C66.1886 45.048 65.8686 46.264 65.3566 47.608C64.8446 48.952 64.2046 50.312 63.4366 51.688C62.7006 53.032 61.8846 54.296 60.9886 55.48C60.0926 56.664 59.1966 57.656 58.3006 58.456ZM63.2446 72.712C62.7326 72.712 62.2046 72.664 61.6606 72.568C61.1166 72.504 60.6046 72.408 60.1246 72.28C59.6126 72.184 59.1646 72.072 58.7806 71.944C58.3966 71.816 58.0926 71.704 57.8686 71.608C57.4526 71.416 57.1806 71.128 57.0526 70.744C56.9246 70.36 56.8606 69.96 56.8606 69.544C56.8606 69 56.9406 68.584 57.1006 68.296C57.2606 68.04 57.4206 67.912 57.5806 67.912C57.6446 67.912 57.7566 67.928 57.9166 67.96C58.0446 67.992 58.1726 68.024 58.3006 68.056C58.5886 68.12 58.9406 68.2 59.3566 68.296C59.7406 68.424 60.1566 68.52 60.6046 68.584C61.0206 68.68 61.4206 68.728 61.8046 68.728C62.7326 68.728 63.4686 68.536 64.0126 68.152C64.5566 67.768 64.9726 67.08 65.2606 66.088C65.5486 65.128 65.7406 63.752 65.8366 61.96C65.9326 60.2 65.9806 57.96 65.9806 55.24V40.648H62.7646C62.5406 40.648 62.3806 40.584 62.2846 40.456C62.2206 40.328 62.1886 40.04 62.1886 39.592C62.1886 38.856 62.3006 38.248 62.5246 37.768C62.7486 37.288 63.0366 37.048 63.3886 37.048H65.7406V35.704C65.7406 34.04 65.9166 32.488 66.2686 31.048C66.6526 29.576 67.4526 28.296 68.6686 27.208C69.8206 26.184 71.0526 25.512 72.3646 25.192C73.6766 24.872 74.8926 24.712 76.0126 24.712C77.1006 24.712 78.1246 24.84 79.0846 25.096C80.0446 25.32 80.7326 25.56 81.1486 25.816C81.4366 25.976 81.6286 26.232 81.7246 26.584C81.8526 26.904 81.9166 27.288 81.9166 27.736C81.9166 28.088 81.8366 28.424 81.6766 28.744C81.5486 29.064 81.3726 29.224 81.1486 29.224C81.0526 29.224 80.9246 29.208 80.7646 29.176C80.6366 29.144 80.4926 29.112 80.3326 29.08C80.1406 29.016 79.8206 28.952 79.3726 28.888C78.9246 28.792 78.3806 28.744 77.7406 28.744C77.1646 28.744 76.6206 28.904 76.1086 29.224C75.6286 29.544 75.2446 30.152 74.9566 31.048C74.6686 31.912 74.5246 33.176 74.5246 34.84L74.4766 37.048H80.4766C80.7006 37.048 80.8446 37.112 80.9086 37.24C81.0046 37.368 81.0526 37.656 81.0526 38.104C81.0526 38.84 80.9406 39.448 80.7166 39.928C80.4926 40.408 80.2046 40.648 79.8526 40.648H74.5246L74.1406 58.984C74.0446 61.672 73.6286 63.896 72.8926 65.656C72.1566 67.448 71.2286 68.872 70.1086 69.928C69.0206 70.952 67.8846 71.672 66.7006 72.088C65.5166 72.504 64.3646 72.712 63.2446 72.712Z" fill="white"/>
</svg>
