<svg xmlns="http://www.w3.org/2000/svg" viewBox="0 0 221.93 240.9"><defs><style>.cls-1{fill:#252323;}</style></defs><g id="Capa_2" data-name="Capa 2"><g id="Capa_1-2" data-name="Capa 1"><g id="Imagotipo"><g id="Logotipo"><path id="f" class="cls-1" d="M190.32,206.78v1.71h9.45v3.11h-9.45v28.61h-3.24V211.6h-5.45v-3.11h5.45v-1.71c0-7.8,4.38-12.3,12.69-11.67v3C193.3,197.65,190.32,200.63,190.32,206.78Z"/><path id="t" class="cls-1" d="M212.48,211.6v20.61c0,5.59,3,5.71,9.45,5.14v2.86c-8.3,1.26-12.68-.76-12.68-8V211.6h-7v-3.11h7v-7.92l3.23-.95v8.87h9.45v3.11Z"/><path id="o" class="cls-1" d="M146.25,224.35a16.65,16.65,0,1,1,16.68,16.55A16.43,16.43,0,0,1,146.25,224.35Zm30.06,0a13.42,13.42,0,1,0-13.38,13.51A13.29,13.29,0,0,0,176.31,224.35Z"/><path id="s" class="cls-1" d="M142.29,231.9c0,5.2-4.57,9-11.36,9-6.34,0-10.52-3-12.05-7l2.73-1.58c1.14,3.42,4.57,5.58,9.32,5.58,4.44,0,8.18-2,8.18-6,0-8.63-19.21-3.68-19.21-15.1,0-5,4.31-9,10.78-9,5.14,0,9.07,2.47,10.78,6.34l-2.66,1.52c-1.33-3.3-4.63-4.82-8.12-4.82-4.12,0-7.61,2.16-7.61,6C123.07,225.3,142.29,220.29,142.29,231.9Z"/><path id="i" class="cls-1" d="M108.6,198.28a2.54,2.54,0,1,1,2.53,2.54A2.53,2.53,0,0,1,108.6,198.28Zm1,10.21h3.17v31.72h-3.17Z"/><path id="e" class="cls-1" d="M103.29,224.48c0,.5-.06,1-.06,1.52H74.5c.76,7.17,6.21,11.86,13.44,11.86,5.2,0,9.14-2.41,11-5.77l2.79,1.65c-2.6,4.31-7.55,7.16-13.83,7.16-9.77,0-16.68-7-16.68-16.55,0-9.32,6.72-16.55,16.43-16.55S103.29,215.79,103.29,224.48ZM74.5,222.89H100c-.69-7.74-6.15-12-12.36-12A12.78,12.78,0,0,0,74.5,222.89Z"/><path id="n" class="cls-1" d="M65.21,220.48v19.73H62V220.48c0-5.83-3.36-9.64-9.32-9.64-6.22,0-11.1,4.06-11.1,12.62v16.75H38.38V208.49h3.17v6C44,209.83,48,207.8,52.9,207.8,60.45,207.8,65.21,212.81,65.21,220.48Z"/><path id="e-2" data-name="e" class="cls-1" d="M32.09,224.48c0,.5-.06,1-.06,1.52H3.3c.76,7.17,6.21,11.86,13.44,11.86,5.2,0,9.14-2.41,11-5.77l2.79,1.65c-2.6,4.31-7.55,7.16-13.83,7.16-9.77,0-16.68-7-16.68-16.55C0,215,6.72,207.8,16.43,207.8S32.09,215.79,32.09,224.48ZM3.3,222.89H28.79c-.69-7.74-6.15-12-12.36-12A12.78,12.78,0,0,0,3.3,222.89Z"/></g><g id="Isotipo"><polygon class="cls-1" points="40.35 13.45 40.35 154.68 181.58 154.68 181.58 53.8 147.96 53.8 147.96 127.78 60.53 127.78 60.53 40.35 121.06 40.35 121.06 87.43 87.43 87.43 87.43 73.98 107.6 73.98 107.6 53.8 73.98 53.8 73.98 114.33 134.5 114.33 134.5 40.35 195.03 40.35 195.03 168.13 26.9 168.13 26.9 0 195.03 0 195.03 13.45 40.35 13.45"/></g></g></g></g></svg>