<svg xmlns="http://www.w3.org/2000/svg" viewBox="0 0 288.25 59.52"><defs><style>.cls-1{fill:#fafafa;}</style></defs><g id="Capa_2" data-name="Capa 2"><g id="Capa_1-2" data-name="Capa 1"><g id="Imagotipo"><g id="Logotipo"><path id="f" class="cls-1" d="M247,15.23v2.23h12.39v4.05H247.28V58.67H243V21.51h-7.15V17.46H243V15.23c0-10.13,5.67-16,16.44-15.15V4C251,3.33,247,7.21,247,15.23Z"/><path id="t" class="cls-1" d="M275.86,21.51V48.37c0,7.27,3.91,7.44,12.39,6.69V58.6c-10.76,1.64-16.44-1-16.44-10.35V21.51h-9.05V17.46h9.05V7.16l4.05-1.23V17.46h12.39v4.05Z"/><path id="o" class="cls-1" d="M190,38a21.63,21.63,0,1,1,21.67,21.5A21.35,21.35,0,0,1,190,38Zm39,0a17.43,17.43,0,1,0-34.85,0A17.43,17.43,0,1,0,229,38Z"/><path id="s" class="cls-1" d="M184.81,47.82c0,6.75-5.93,11.7-14.74,11.7-8.24,0-13.68-3.87-15.66-9.15L158,48.31c1.48,4.45,5.93,7.25,12.11,7.25,5.76,0,10.62-2.55,10.62-7.74,0-11.2-25-4.78-25-19.61,0-6.5,5.6-11.69,14-11.69,6.67,0,11.78,3.21,14,8.23l-3.46,2c-1.73-4.28-6-6.26-10.54-6.26-5.36,0-9.89,2.8-9.89,7.74C159.85,39.25,184.81,32.74,184.81,47.82Z"/><path id="i" class="cls-1" d="M141.05,4.16a3.3,3.3,0,0,1,6.59,0,3.3,3.3,0,0,1-6.59,0Zm1.18,13.3h4.05V58.67h-4.05Z"/><path id="e" class="cls-1" d="M134.16,38.11c0,.66-.08,1.32-.08,2H96.76c1,9.31,8.08,15.4,17.47,15.4,6.75,0,11.86-3.13,14.25-7.49l3.62,2.14c-3.37,5.6-9.8,9.31-17.95,9.31-12.69,0-21.67-9.06-21.67-21.5,0-12.11,8.73-21.5,21.34-21.5S134.16,26.83,134.16,38.11ZM96.76,36h33.12c-.91-10-8-15.65-16.06-15.65C104.43,20.39,97.59,26.9,96.76,36Z"/><path id="n" class="cls-1" d="M84.58,33V58.67h-4V33.05c0-7.58-4.35-12.52-12.07-12.52-8,0-14.37,5.27-14.37,16.39V58.67H49.8V17.46h4.05v7.83c3.13-6.1,8.4-8.74,14.75-8.74C78.4,16.55,84.58,23.06,84.58,33Z"/><path id="e-2" data-name="e" class="cls-1" d="M41.68,38.11c0,.66-.08,1.32-.08,2H4.28c1,9.31,8.08,15.4,17.47,15.4C28.5,55.49,33.61,52.36,36,48l3.62,2.14c-3.37,5.6-9.8,9.31-17.95,9.31C9,59.45,0,50.39,0,38c0-12.11,8.73-21.5,21.34-21.5S41.68,26.83,41.68,38.11ZM4.28,36H37.4c-.91-10-8-15.65-16.06-15.65C11.94,20.39,5.11,26.9,4.28,36Z"/></g></g></g></g></svg>